<?xml version="1.0" standalone="no"?>
<!DOCTYPE svg PUBLIC "-//W3C//DTD SVG 20010904//EN"
 "http://www.w3.org/TR/2001/REC-SVG-20010904/DTD/svg10.dtd">
<svg version="1.0" xmlns="http://www.w3.org/2000/svg"
 width="305.000000pt" height="358.000000pt" viewBox="0 0 305.000000 358.000000"
 preserveAspectRatio="xMidYMid meet">

<g transform="translate(0.000000,358.000000) scale(0.100000,-0.100000)"
fill="#000000" stroke="none">
<path d="M1436 2880 c-9 -17 -22 -28 -27 -25 -5 4 -12 -1 -15 -10 -5 -13 -9
-13 -23 -3 -14 12 -15 11 -2 -7 33 -44 65 -74 74 -68 6 3 7 1 3 -5 -3 -6 -3
-13 1 -15 5 -3 8 33 8 79 0 46 0 84 0 84 -1 0 -9 -14 -19 -30z m4 -30 c0 -5
-5 -10 -11 -10 -5 0 -7 5 -4 10 3 6 8 10 11 10 2 0 4 -4 4 -10z m-6 -43 c-2
-11 -6 -22 -10 -26 -4 -3 -4 2 -1 11 3 10 2 20 -3 23 -6 4 -10 0 -10 -7 0 -10
-2 -10 -9 1 -5 8 -7 20 -4 27 8 21 42 -6 37 -29z"/>
<path d="M1620 2861 c0 -7 -4 -9 -10 -6 -5 3 -7 0 -4 -8 3 -8 -1 -14 -10 -14
-8 0 -13 5 -12 11 2 6 1 8 -1 4 -2 -4 -10 -5 -18 -2 -18 7 -23 -3 -30 -62 l-7
-49 37 35 c39 37 70 88 61 98 -3 3 -6 0 -6 -7z m-47 -46 c3 -18 -1 -29 -13
-35 -12 -6 -17 -5 -17 5 0 7 7 11 15 8 12 -5 12 -2 3 15 -13 25 -14 32 -2 32
5 0 11 -11 14 -25z"/>
<path d="M1581 2667 c-6 -8 -8 -17 -4 -20 3 -4 1 -7 -6 -7 -6 0 -22 -7 -36
-16 -25 -16 -26 -11 12 -83 1 -1 27 8 58 23 59 27 148 86 140 94 -2 2 -18 -7
-35 -21 -17 -15 -37 -24 -45 -21 -8 4 -17 -1 -21 -9 -7 -20 -32 -29 -40 -15
-4 7 -3 8 4 4 7 -4 12 -3 12 2 0 5 -9 12 -20 15 -20 5 -23 28 -7 55 11 16 2
15 -12 -1z"/>
<path d="M1267 2631 c22 -20 39 -28 50 -24 10 4 14 2 10 -5 -10 -15 101 -64
126 -56 11 3 16 9 11 13 -12 8 -17 34 -5 27 22 -14 22 18 0 36 -42 33 -59 41
-53 23 4 -8 12 -15 19 -15 7 0 19 -8 26 -17 7 -10 9 -15 4 -10 -4 4 -17 -1
-28 -10 -13 -11 -17 -12 -12 -4 6 11 4 13 -9 8 -11 -4 -15 -3 -11 4 4 6 13 8
21 5 7 -3 16 -1 19 4 4 6 -3 10 -13 10 -11 0 -25 7 -32 15 -7 8 -18 15 -24 14
-7 0 -6 -2 2 -6 21 -8 13 -21 -10 -15 -15 3 -19 2 -14 -7 11 -17 -42 -4 -79
21 l-30 20 32 -31z"/>
<path d="M1625 2650 c-3 -5 -1 -10 4 -10 6 0 11 5 11 10 0 6 -2 10 -4 10 -3 0
-8 -4 -11 -10z"/>
<path d="M1596 2632 c-3 -5 1 -9 9 -9 8 0 12 4 9 9 -3 4 -7 8 -9 8 -2 0 -6 -4
-9 -8z"/>
<path d="M820 2502 c0 -40 -83 -58 -128 -26 -26 18 -29 8 -6 -24 8 -12 20 -20
25 -17 5 4 9 1 9 -4 0 -19 55 -12 78 9 23 21 39 66 28 77 -3 4 -6 -3 -6 -15z"/>
<path d="M983 2505 c0 -9 18 -31 39 -50 42 -39 65 -46 46 -15 -8 12 -15 15
-19 8 -4 -6 -9 -3 -13 9 -4 11 -17 30 -30 42 -18 17 -23 18 -23 6z m28 -22
c13 -16 12 -17 -3 -4 -10 7 -18 15 -18 17 0 8 8 3 21 -13z"/>
<path d="M1077 2485 c-4 -22 -2 -44 2 -48 5 -5 7 -16 4 -25 -4 -10 -2 -13 5
-8 7 4 12 2 12 -5 0 -7 2 -10 4 -8 2 2 -2 33 -8 69 l-12 65 -7 -40z"/>
<path d="M1975 2485 c-30 -34 -30 -34 -42 -12 -7 12 -12 16 -13 9 0 -7 -4 -11
-9 -8 -14 9 -20 -31 -7 -45 7 -8 7 -10 0 -6 -6 4 -16 -5 -23 -19 -11 -25 -11
-25 11 -9 34 23 118 106 118 116 0 12 -1 11 -35 -26z"/>
<path d="M2160 2477 c0 -24 45 -57 77 -57 22 0 38 8 52 27 22 27 20 46 -1 25
-17 -17 -80 -15 -106 4 -18 12 -22 13 -22 1z"/>
<path d="M1801 2428 c-7 -19 -15 -27 -18 -20 -3 7 -12 -2 -23 -24 -14 -27 -17
-42 -9 -62 9 -24 10 -25 23 -6 17 25 49 121 44 134 -2 6 -9 -4 -17 -22z"/>
<path d="M1703 2443 c-18 -7 -16 -28 5 -44 9 -7 14 -9 10 -5 -4 5 -2 16 5 25
11 14 10 14 -5 2 -20 -15 -25 -2 -6 17 13 13 11 14 -9 5z"/>
<path d="M1267 2407 c-27 -30 -28 -31 -21 -7 6 22 5 23 -10 11 -13 -11 -16
-11 -17 0 0 8 -4 5 -9 -6 -8 -18 -9 -18 -9 -2 -1 10 -6 15 -11 12 -6 -3 -7
-18 -4 -33 9 -37 43 -101 44 -81 0 9 18 44 40 77 43 67 42 79 -3 29z"/>
<path d="M1414 2395 c-43 -19 -101 -86 -113 -132 -6 -21 -11 -67 -11 -103 l0
-64 -51 49 c-28 28 -49 43 -47 35 2 -10 -4 -14 -19 -13 -15 2 -23 -3 -23 -12
0 -17 -29 -9 -47 13 -7 9 -13 11 -13 5 0 -14 35 -44 43 -36 4 3 7 -1 7 -10 0
-9 5 -17 11 -17 5 0 7 4 4 10 -3 5 -1 18 5 27 9 15 10 14 5 -7 -6 -24 -6 -24
19 5 14 17 25 25 26 20 0 -6 -6 -17 -12 -24 -11 -11 -10 -12 2 -6 9 5 12 4 7
-1 -5 -5 -14 -9 -20 -9 -7 -1 -11 -6 -10 -13 2 -7 0 -11 -5 -11 -22 4 -21 -5
6 -38 34 -44 92 -150 92 -169 0 -7 5 -14 11 -16 7 -2 -7 -19 -29 -37 -25 -19
-47 -29 -54 -25 -7 4 -10 4 -6 -1 4 -4 -4 -22 -19 -39 -14 -17 -36 -53 -48
-79 -22 -46 -23 -47 -28 -20 -3 15 -1 36 5 47 9 16 8 18 -7 12 -14 -5 -16 -2
-12 14 3 11 1 18 -4 14 -5 -3 -9 0 -9 6 0 22 -95 111 -171 160 -43 27 -81 50
-84 50 -21 0 -149 92 -192 138 l-53 56 0 -44 c0 -226 160 -572 331 -715 26
-22 47 -47 46 -55 -1 -8 -31 -36 -66 -63 l-63 -48 -52 45 c-80 68 -180 115
-311 147 -79 19 -225 26 -225 12 0 -17 63 -101 112 -151 29 -30 71 -63 93 -74
36 -19 46 -20 95 -10 42 9 73 8 129 -1 l75 -13 -31 -22 c-100 -71 -213 -80
-283 -24 -20 17 -26 17 -71 3 -27 -8 -49 -18 -49 -22 0 -12 69 -68 108 -88 20
-10 61 -24 90 -30 65 -14 163 4 241 43 47 25 52 25 57 9 18 -57 30 -76 65
-108 22 -19 46 -35 54 -35 8 0 15 -4 15 -10 0 -6 -107 -10 -300 -10 l-299 0
13 -38 c8 -20 34 -79 60 -130 l46 -92 1042 2 1042 3 26 45 c34 60 95 199 89
205 -3 2 -136 5 -297 5 -161 1 -292 4 -292 8 0 4 16 16 36 27 44 24 79 69 89
112 3 18 8 33 9 33 2 0 34 -14 72 -32 61 -29 79 -32 159 -33 102 0 151 16 223
73 52 41 55 62 9 62 -18 0 -37 4 -43 10 -6 6 -29 0 -63 -17 -71 -36 -139 -37
-204 -4 -26 14 -54 32 -62 41 -13 15 -8 17 61 29 57 11 81 11 100 2 37 -16 59
-14 113 13 53 27 123 100 170 176 l31 50 -83 0 c-156 0 -352 -72 -450 -165
-49 -46 -49 -46 -75 -29 -48 31 -112 86 -112 96 0 6 31 40 68 77 87 84 142
166 203 301 58 126 88 235 96 344 l6 78 -52 -50 c-61 -59 -123 -101 -238 -162
-121 -64 -233 -171 -233 -223 0 -8 -7 -14 -15 -14 -15 0 -14 10 2 53 2 7 0 15
-6 19 -6 3 -9 0 -5 -8 6 -17 -22 -31 -32 -15 -4 7 -3 8 4 4 17 -10 15 9 -3 24
-8 7 -12 17 -8 23 3 6 1 7 -6 3 -9 -6 -9 -11 1 -23 12 -15 11 -15 -9 -3 -12 8
-19 18 -16 24 3 5 1 6 -5 2 -15 -9 -82 35 -82 55 0 9 19 54 42 100 35 71 59
101 152 194 61 61 93 97 71 81 -22 -16 -45 -35 -52 -43 -6 -8 -17 -15 -25 -17
-23 -3 -39 -17 -32 -28 4 -7 2 -8 -4 -4 -15 9 8 48 25 42 16 -6 25 20 10 32
-26 20 -41 22 -18 3 l23 -21 -25 2 c-14 1 -25 5 -25 8 1 18 -4 21 -17 10 -8
-7 -13 -16 -10 -20 3 -5 0 -12 -6 -16 -8 -5 -9 -3 -4 7 9 16 -54 -40 -94 -84
l-26 -28 3 62 c5 76 -8 122 -48 177 -53 74 -154 103 -236 67z m114 -171 c39
-27 22 -94 -25 -94 -57 0 -84 64 -41 94 12 9 27 16 33 16 6 0 21 -7 33 -16z
m297 -54 c-3 -5 -12 -10 -18 -10 -7 0 -6 4 3 10 19 12 23 12 15 0z m-585 -35
c9 -11 10 -19 2 -27 -14 -14 -31 -2 -29 22 2 24 10 25 27 5z m10 -79 c0 -2 -8
-10 -17 -17 -16 -13 -17 -12 -4 4 13 16 21 21 21 13z m-432 -172 c40 -19 89
-45 109 -59 20 -13 41 -21 46 -18 6 3 7 2 4 -4 -4 -5 4 -19 17 -31 43 -37 78
-108 71 -142 -4 -16 -9 -30 -12 -30 -3 0 -31 27 -60 60 -58 64 -152 125 -246
160 -50 19 -58 25 -67 58 -5 20 -10 45 -10 54 0 20 -2 21 148 -48z m1491 4
c-9 -42 -14 -48 -47 -59 -116 -37 -290 -156 -307 -210 -10 -31 -35 -23 -35 11
0 67 49 138 130 191 65 42 253 129 262 120 4 -3 2 -27 -3 -53z m-793 -176 c1
-7 0 -8 -3 -2 -3 7 -11 7 -24 0 -15 -9 -17 -8 -13 5 7 18 36 16 40 -3z m12
-98 c40 -28 19 -94 -30 -94 -29 0 -58 28 -58 56 0 22 33 54 55 54 6 0 21 -7
33 -16z m12 -181 c70 -41 65 -132 -9 -163 -85 -35 -167 64 -115 138 29 42 79
52 124 25z m-358 -172 c-5 -51 -11 -94 -14 -96 -3 -4 -99 18 -136 30 -9 3 5
20 36 44 27 22 65 58 83 80 19 22 35 38 37 37 1 -2 -1 -45 -6 -95z m668 43
c25 -26 60 -58 78 -72 18 -14 29 -29 25 -33 -11 -11 -125 -40 -131 -34 -8 7
-29 185 -22 185 3 0 25 -21 50 -46z m-320 -152 c42 -34 23 -102 -29 -102 -57
0 -84 51 -50 93 24 32 48 34 79 9z m282 -279 c10 -9 18 -25 18 -36 0 -44 -18
-46 -334 -47 -265 0 -302 2 -318 17 -22 20 -23 41 -1 65 15 17 38 18 316 18
266 0 303 -2 319 -17z"/>
<path d="M1737 2390 c-9 -11 -12 -22 -7 -25 5 -3 14 4 20 16 15 28 8 33 -13 9z"/>
<path d="M1895 2280 c-3 -5 -2 -10 4 -10 5 0 13 5 16 10 3 6 2 10 -4 10 -5 0
-13 -4 -16 -10z"/>
<path d="M1020 2226 c0 -2 13 -14 29 -26 23 -15 31 -17 37 -8 4 7 4 10 -1 6
-4 -4 -21 2 -36 13 -16 11 -29 18 -29 15z"/>
<path d="M362 2106 c-22 -49 43 -89 82 -50 22 21 21 22 -16 19 -40 -3 -61 11
-53 36 9 27 0 23 -13 -5z"/>
<path d="M2520 2085 c0 -27 18 -45 45 -45 21 0 55 28 55 45 0 5 -6 1 -13 -9
-13 -17 -47 -13 -47 6 0 5 -5 6 -11 2 -6 -3 -15 0 -20 7 -7 11 -9 9 -9 -6z"/>
<path d="M226 1853 c12 -57 46 -139 76 -185 59 -93 142 -143 295 -179 48 -11
97 -23 108 -26 16 -5 18 -3 8 8 -6 8 -37 66 -69 128 -61 122 -108 179 -185
224 -51 30 -146 57 -201 57 -37 0 -38 -1 -32 -27z"/>
<path d="M2599 1857 c-123 -42 -179 -97 -256 -247 -21 -41 -48 -91 -60 -111
l-22 -36 47 9 c89 18 212 60 264 92 82 49 157 166 183 284 l7 32 -49 0 c-26 0
-78 -11 -114 -23z"/>
<path d="M1090 1789 c0 -5 5 -7 10 -4 6 3 10 8 10 11 0 2 -4 4 -10 4 -5 0 -10
-5 -10 -11z"/>
</g>
</svg>
